<svg xmlns="http://www.w3.org/2000/svg" width="17.17" height="17.93" viewBox="0 0 17.17 17.93">
  <g id="Group_8" data-name="Group 8" transform="translate(0.5 0.5)">
    <path id="Path_30" data-name="Path 30" d="M151.378,146.179h-3.465a1.725,1.725,0,0,0-1.732,1.733v3.465a1.725,1.725,0,0,0,1.732,1.732h3.465a1.725,1.725,0,0,0,1.732-1.732v-3.465a1.725,1.725,0,0,0-1.732-1.733Z" transform="translate(-136.941 -146.179)" fill="none" stroke="#f1cd4c" stroke-width="1"/>
    <path id="Path_58" data-name="Path 58" d="M151.378,146.179h-3.465a1.725,1.725,0,0,0-1.732,1.733v3.465a1.725,1.725,0,0,0,1.732,1.732h3.465a1.725,1.725,0,0,0,1.732-1.732v-3.465a1.725,1.725,0,0,0-1.732-1.733Z" transform="translate(-136.941 -136.179)" fill="none" stroke="#f1cd4c" stroke-width="1"/>
    <path id="Path_31" data-name="Path 31" d="M5.2,146.179H1.732a1.671,1.671,0,0,0-1.227.505A1.67,1.67,0,0,0,0,147.911v3.465A1.669,1.669,0,0,0,.505,152.6a1.67,1.67,0,0,0,1.227.505H5.2a1.725,1.725,0,0,0,1.732-1.732v-3.465A1.725,1.725,0,0,0,5.2,146.179Z" transform="translate(0 -146.179)" fill="none" stroke="#f1cd4c" stroke-width="1"/>
    <path id="Path_59" data-name="Path 59" d="M5.2,146.179H1.732a1.671,1.671,0,0,0-1.227.505A1.67,1.67,0,0,0,0,147.911v3.465A1.669,1.669,0,0,0,.505,152.6a1.67,1.67,0,0,0,1.227.505H5.2a1.725,1.725,0,0,0,1.732-1.732v-3.465A1.725,1.725,0,0,0,5.2,146.179Z" transform="translate(0 -136.179)" fill="none" stroke="#f1cd4c" stroke-width="1"/>
  </g>
</svg>
