<svg xmlns="http://www.w3.org/2000/svg" width="188.455" height="121.682" viewBox="0 0 188.455 121.682">
  <g id="Group_16" data-name="Group 16" transform="translate(-2.704 -3.201)">
    <g id="Group_11" data-name="Group 11" transform="translate(60.228 3.201)">
      <path id="Path_34" data-name="Path 34" d="M382.034,76A36.611,36.611,0,0,1,348.26,16.488a.588.588,0,0,1,.906.749A35.3,35.3,0,1,0,361.8,7.554a.588.588,0,0,1-.487-1.07A36.615,36.615,0,1,1,382.034,76Z" transform="translate(-339.868 -3.201)" fill="#15293e"/>
    </g>
    <g id="Group_12" data-name="Group 12" transform="translate(81.355 18.064)">
      <path id="Path_35" data-name="Path 35" d="M489.712,105.142a.588.588,0,0,1-.382-1.035,7.162,7.162,0,0,0-4.646-12.614h-19.8l-.015,6.9a.588.588,0,0,1-.588.587h0a.588.588,0,0,1-.587-.589l.017-8.077h20.97A8.338,8.338,0,0,1,490.094,105,.585.585,0,0,1,489.712,105.142Z" transform="translate(-463.697 -90.317)" fill="#d91258"/>
    </g>
    <g id="Group_13" data-name="Group 13" transform="translate(81.355 25.814)">
      <path id="Path_36" data-name="Path 36" d="M482.912,171.494H463.7V144.08a8.348,8.348,0,0,1,8.338-8.338h12.25a.588.588,0,0,1,0,1.176h-12.25a7.17,7.17,0,0,0-7.162,7.162v26.238h18.039a12.1,12.1,0,1,0,0-24.194H472.623v16.59h9.346a4.85,4.85,0,1,0,0-9.7h-3.544a.588.588,0,1,1,0-1.176h3.544a6.026,6.026,0,1,1,0,12.051H471.447V144.948h11.465a13.273,13.273,0,1,1,0,26.546Z" transform="translate(-463.697 -135.742)" fill="#15293e"/>
    </g>
    <g id="Group_14" data-name="Group 14" transform="translate(96.249 116.053)">
      <path id="Path_37" data-name="Path 37" d="M562.349,685.679h-3.037V685.2l1.179-.047v-3.842c0-.9-.339-1.273-1.261-1.273a3.718,3.718,0,0,0-2.243.9l.012.245v3.971l1.18.047v.479h-3.037V685.2l1.191-.047v-3.842c0-.9-.339-1.273-1.273-1.273a3.616,3.616,0,0,0-2.219.9v4.216l1.191.047v.479H551V685.2l1.191-.047v-5.069L551,680.038v-.491h1.845v.923a3.694,3.694,0,0,1,2.476-1.028c.958,0,1.46.315,1.624,1.075a3.725,3.725,0,0,1,2.534-1.075c1.191,0,1.682.491,1.682,1.74v3.971l1.191.047Z" transform="translate(-550.996 -676.919)" fill="#d91258"/>
      <path id="Path_38" data-name="Path 38" d="M627.791,684.156l.631-.035c0,1.366-.4,1.8-2.429,1.8-2.137,0-2.558-.5-2.558-3.142,0-2.616.42-3.13,2.511-3.13,2.125,0,2.511.49,2.511,3.13,0,.187-.047.234-.222.234h-4.146c.023,2.044.315,2.359,1.9,2.359C627.546,685.371,627.791,685.1,627.791,684.156Zm-3.7-1.635h3.726c-.023-2.009-.339-2.336-1.868-2.336S624.112,680.512,624.089,682.521Z" transform="translate(-611.076 -677.09)" fill="#d91258"/>
      <path id="Path_39" data-name="Path 39" d="M664.423,679.707v.584h-.479c-.689,0-1.18.234-2.1,1.075v3.959l1.191.047v.479H660v-.479l1.192-.047v-5.069L660,680.209v-.491h1.846v1.168c.853-.958,1.355-1.238,2.091-1.238A1.749,1.749,0,0,1,664.423,679.707Z" transform="translate(-641.399 -677.09)" fill="#d91258"/>
      <path id="Path_40" data-name="Path 40" d="M694.828,673.416h-1.612l-1.6-2.231a.917.917,0,0,0-.969-.5h-.561v2.207l1.04.047v.479h-2.92v-.479l1.226-.047V665.2l-1.192-.058v-.491h1.846v5.489h.561c.537,0,.63-.047.911-.455l1.285-1.892-.993-.047v-.467h2.733v.467l-1.063.058-1.425,2.055a1.177,1.177,0,0,1-.572.526,1.218,1.218,0,0,1,.631.49l1.46,1.985,1.215.059Z" transform="translate(-664.796 -664.656)" fill="#d91258"/>
      <path id="Path_41" data-name="Path 41" d="M736.447,684.156l.631-.035c0,1.366-.4,1.8-2.429,1.8-2.137,0-2.558-.5-2.558-3.142,0-2.616.42-3.13,2.511-3.13,2.125,0,2.511.49,2.511,3.13,0,.187-.047.234-.222.234h-4.146c.023,2.044.315,2.359,1.9,2.359C736.2,685.371,736.447,685.1,736.447,684.156Zm-3.7-1.635h3.726c-.023-2.009-.339-2.336-1.869-2.336S732.768,680.512,732.745,682.521Z" transform="translate(-701.194 -677.09)" fill="#d91258"/>
      <path id="Path_42" data-name="Path 42" d="M776.01,685.85h-3.037v-.479l1.191-.047v-3.831c0-.888-.374-1.249-1.308-1.249a4.115,4.115,0,0,0-2.359.841v4.24l1.191.047v.479h-3.037v-.479l1.191-.047v-5.069l-1.191-.047v-.491H770.5v.958a3.952,3.952,0,0,1,2.616-1.028c1.2,0,1.717.479,1.717,1.717v3.959l1.18.047Z" transform="translate(-731.517 -677.09)" fill="#d91258"/>
      <path id="Path_43" data-name="Path 43" d="M821.375,670.344c0,2.6-.643,3.142-2.242,3.142a3.112,3.112,0,0,1-2.418-.888v.818h-1.845v-.49l1.191-.059V665.2l-1.191-.058v-.491h1.845v3.562a3.251,3.251,0,0,1,2.5-1C820.755,667.214,821.375,667.693,821.375,670.344Zm-.654,0c0-2.149-.479-2.558-1.752-2.558a3.257,3.257,0,0,0-2.254.864v3.469a3.171,3.171,0,0,0,2.231.794C820.241,672.913,820.72,672.516,820.72,670.344Z" transform="translate(-769.849 -664.656)" fill="#d91258"/>
      <path id="Path_44" data-name="Path 44" d="M867.54,682.778c0,2.628-.444,3.142-2.674,3.142s-2.686-.514-2.686-3.142.444-3.13,2.686-3.13S867.54,680.162,867.54,682.778Zm-4.7,0c0,2.242.292,2.593,2.021,2.593s2.009-.35,2.009-2.593-.292-2.593-2.009-2.593S862.845,680.547,862.845,682.778Z" transform="translate(-809.088 -677.09)" fill="#d91258"/>
      <path id="Path_45" data-name="Path 45" d="M906.92,686.191h-1.857v-.981a3.106,3.106,0,0,1-2.429,1.051c-1.3,0-1.88-.537-1.88-1.95V680.6l-1.191-.047v-.491h1.857v4.088c0,1.11.373,1.518,1.448,1.518a2.934,2.934,0,0,0,2.2-.9V680.6l-1.179-.047v-.491h1.845v5.583l1.192.059Z" transform="translate(-840.093 -677.431)" fill="#d91258"/>
      <path id="Path_46" data-name="Path 46" d="M953.251,680.573l-1.413,5.618h-.817l-1.542-4.59a6.083,6.083,0,0,1-.187-.771h-.059a4.7,4.7,0,0,1-.2.771l-1.53,4.59h-.794l-1.4-5.618-.969-.058v-.456h2.8v.456l-1.18.058.981,4.029a9.242,9.242,0,0,1,.2.958h.047a7.232,7.232,0,0,1,.245-.958l1.5-4.543h.712l1.542,4.683c.082.268.152.549.21.818h.047c.047-.269.094-.549.164-.818l1.051-4.17-1.11-.058v-.456h2.7v.456Z" transform="translate(-877.23 -677.431)" fill="#d91258"/>
      <path id="Path_47" data-name="Path 47" d="M1011.548,684.156l.631-.035c0,1.366-.4,1.8-2.429,1.8-2.137,0-2.558-.5-2.558-3.142,0-2.616.42-3.13,2.511-3.13,2.125,0,2.511.49,2.511,3.13,0,.187-.047.234-.222.234h-4.146c.023,2.044.315,2.359,1.9,2.359C1011.3,685.371,1011.548,685.1,1011.548,684.156Zm-3.7-1.635h3.726c-.023-2.009-.339-2.336-1.869-2.336S1007.869,680.512,1007.846,682.521Z" transform="translate(-929.36 -677.09)" fill="#d91258"/>
      <path id="Path_48" data-name="Path 48" d="M1048.179,679.707v.584h-.479c-.689,0-1.18.234-2.1,1.075v3.959l1.191.047v.479h-3.037v-.479l1.192-.047v-5.069l-1.192-.047v-.491h1.846v1.168c.853-.958,1.355-1.238,2.091-1.238A1.749,1.749,0,0,1,1048.179,679.707Z" transform="translate(-959.682 -677.09)" fill="#d91258"/>
      <path id="Path_49" data-name="Path 49" d="M1081.546,681.365l-.666.047c0-1.04-.234-1.226-1.74-1.226-1.577,0-1.787.222-1.787,1.016s.222,1.039,2.091,1.308c1.962.269,2.219.549,2.219,1.775,0,1.355-.362,1.635-2.546,1.635-2.161,0-2.5-.315-2.5-1.846l.666-.047c0,1.121.222,1.355,1.834,1.355s1.881-.21,1.881-1.063c0-.818-.164-1.063-1.822-1.308-2.2-.327-2.476-.619-2.476-1.8,0-1.2.28-1.565,2.441-1.565C1081.207,679.648,1081.546,679.94,1081.546,681.365Z" transform="translate(-986.94 -677.09)" fill="#d91258"/>
    </g>
    <g id="Group_15" data-name="Group 15" transform="translate(2.704 83.497)">
      <path id="Path_50" data-name="Path 50" d="M3.408,476.318H9.216c5.315,0,9.187,1.76,9.187,6.406a5.188,5.188,0,0,1-3.942,5.526,5.336,5.336,0,0,1,4.646,5.632c0,5.139-3.7,7.075-9.785,7.075H3.408c-.528,0-.7-.141-.7-.7V477.022C2.7,476.459,2.88,476.318,3.408,476.318Zm1.584,2.6v8.166c0,.246.105.352.352.352h4.4c4.153,0,6.23-1.514,6.23-4.47,0-3.062-2.464-4.4-6.934-4.4h-3.7C5.1,478.571,4.992,478.676,4.992,478.923Zm11.721,15.03c0-3.238-2.64-4.294-6.969-4.294h-4.4c-.247,0-.352.106-.352.352v8.342c0,.246.105.352.352.352H9.321C14.425,498.7,16.713,497.4,16.713,493.952Z" transform="translate(-2.704 -475.895)" fill="#15293e"/>
      <path id="Path_51" data-name="Path 51" d="M114.894,497.881c-.387.845-.6,1.021-1.3,1.021h-.633c-.493,0-.7-.141-.7-.458a1.64,1.64,0,0,1,.176-.563l10.313-22.315c.669-1.443.845-1.725,1.232-1.725.352,0,.528.282,1.2,1.725l10.383,22.315a1.638,1.638,0,0,1,.176.563c0,.317-.211.458-.7.458h-.739c-.7,0-.915-.176-1.3-1.021L123.94,478.1Z" transform="translate(-93.564 -473.841)" fill="#15293e"/>
      <path id="Path_52" data-name="Path 52" d="M287,474.606h.88c.528,0,.7.141.7.7v23.231c0,.774-.246,1.056-.669,1.056-.352,0-.633-.211-1.3-1.056l-15.065-19.183v19.183c0,.563-.176.7-.7.7h-.88c-.528,0-.7-.141-.7-.7V475.31c0-.774.246-1.056.669-1.056.352,0,.634.211,1.3,1.056l15.065,19.183V475.31C286.292,474.747,286.468,474.606,287,474.606Z" transform="translate(-223.779 -474.184)" fill="#15293e"/>
      <path id="Path_53" data-name="Path 53" d="M422.013,476.318H428.7c8.1,0,13.234,4.787,13.234,12.038,0,7.638-5.315,12.6-13.657,12.6h-6.265c-.528,0-.7-.141-.7-.7V477.022C421.309,476.459,421.485,476.318,422.013,476.318Zm1.584,2.6v19.429c0,.246.106.352.352.352h4.435c7,0,11.158-3.907,11.158-10.207,0-5.984-4.153-9.926-11.017-9.926h-4.576C423.7,478.571,423.6,478.676,423.6,478.923Z" transform="translate(-349.89 -475.895)" fill="#15293e"/>
      <path id="Path_54" data-name="Path 54" d="M562.964,501.379c-.493,0-.739-.422-1.3-1.9l-8.412-22.14a1.554,1.554,0,0,1-.105-.493c0-.352.211-.528.739-.528h.774c.7,0,.88.211,1.2,1.021l7.11,19.288,5.808-17.388c.387-1.2.634-1.549,1.126-1.549s.739.352,1.126,1.549l5.737,17.282,7.11-19.183c.317-.81.493-1.021,1.2-1.021h.7c.528,0,.739.176.739.528a1.556,1.556,0,0,1-.106.493l-8.412,22.14c-.563,1.478-.81,1.9-1.3,1.9s-.774-.422-1.232-1.8l-5.632-16.649L564.2,499.584C563.738,500.957,563.457,501.379,562.964,501.379Z" transform="translate(-459.233 -475.895)" fill="#15293e"/>
      <path id="Path_55" data-name="Path 55" d="M783.4,499.408v.845c0,.563-.176.7-.7.7H770.063c-.528,0-.7-.141-.7-.7V477.022c0-.563.176-.7.7-.7h12.6c.528,0,.7.141.7.7v.845c0,.563-.176.7-.7.7H772c-.246,0-.352.106-.352.352v8.166c0,.246.106.352.352.352h9.468c.528,0,.7.141.7.7v.81c0,.563-.176.7-.7.7H772c-.246,0-.352.106-.352.352v8.342c0,.246.106.352.352.352h10.7C783.227,498.7,783.4,498.845,783.4,499.408Z" transform="translate(-638.559 -475.895)" fill="#15293e"/>
      <path id="Path_56" data-name="Path 56" d="M884.825,500.957h-.88c-.528,0-.7-.141-.7-.7V477.022c0-.563.176-.7.7-.7h6.089c6.582,0,9.609,2.675,9.609,7.321,0,3.66-2.042,5.772-5.1,6.688l6.406,9.609a1.435,1.435,0,0,1,.317.7c0,.247-.282.317-.774.317h-.88c-.7,0-.915-.141-1.443-.915L891.3,489.552a.938.938,0,0,1-.176-.458c0-.176.106-.246.422-.282,3.273-.282,5.667-1.619,5.667-5.139,0-3.7-2.816-5.1-7.357-5.1h-3.977c-.246,0-.352.106-.352.352v21.33C885.529,500.816,885.353,500.957,884.825,500.957Z" transform="translate(-733.011 -475.895)" fill="#15293e"/>
      <path id="Path_57" data-name="Path 57" d="M1010.673,500.957h-.88c-.528,0-.7-.141-.7-.7V477.022c0-.563.176-.7.7-.7h.88c.528,0,.7.141.7.7v23.231C1011.377,500.816,1011.2,500.957,1010.673,500.957Zm13.3-24.639H1025q.633,0,.634.317a1.031,1.031,0,0,1-.282.493l-10.172,11.4,10.348,11.545a.926.926,0,0,1,.317.563c0,.211-.211.317-.669.317h-1.161a1.649,1.649,0,0,1-1.514-.774l-9.715-10.982a.913.913,0,0,1-.317-.6.969.969,0,0,1,.352-.634l9.644-10.841C1023.063,476.459,1023.274,476.318,1023.978,476.318Z" transform="translate(-837.388 -475.895)" fill="#15293e"/>
    </g>
  </g>
</svg>
