<svg xmlns="http://www.w3.org/2000/svg" width="93.88" height="100.339" viewBox="0 0 93.88 100.339">
  <g id="Logo_sv_Rijssen_Def" transform="translate(0 0)">
    <g id="Group_5" data-name="Group 5" transform="translate(0.641 0.641)">
      <g id="Group_1" data-name="Group 1" transform="translate(3.267 49.516)">
        <path id="Path_1" data-name="Path 1" d="M387.109,467.642c-1.128,5.879-4.117,21.47,42.541,34.751,46.659-13.282,43.669-28.872,42.542-34.751-1-5.2-1.79-9.456-2.528-14.765H389.637C388.9,458.186,388.106,462.442,387.109,467.642Z" transform="translate(-386.618 -452.877)" fill="#221f1d"/>
      </g>
      <g id="Group_2" data-name="Group 2" transform="translate(0)">
        <path id="Path_2" data-name="Path 2" d="M377.6,270.535h80.042c-.525-3.772-1.022-8.072-1.544-13.625-1.016-10.8,5-19.673,7.635-22.985a.853.853,0,0,0,.177-.675.79.79,0,0,0-.352-.542c-18.942-12.233-45.637-11.744-45.9-11.737h-.064c-.021,0-.2,0-.524,0-3.839,0-27.925.468-45.381,11.741a.791.791,0,0,0-.351.542.852.852,0,0,0,.177.675c2.634,3.312,8.65,12.183,7.635,22.985C378.617,262.463,378.12,266.763,377.6,270.535Z" transform="translate(-371.316 -220.966)" fill="#003473"/>
      </g>
      <g id="Group_3" data-name="Group 3" transform="translate(15.172 6.87)">
        <path id="Path_3" data-name="Path 3" d="M447.179,306.656a4.117,4.117,0,0,1-1.565.509,2.381,2.381,0,0,1-1.356-.169l.169-.749a1.787,1.787,0,0,0,1.08.161,3.35,3.35,0,0,0,1.271-.382,2.055,2.055,0,0,0,.895-.855,1.008,1.008,0,0,0-.017-1.01.793.793,0,0,0-.3-.307,1.517,1.517,0,0,0-.341-.15,1.317,1.317,0,0,0-.471-.007q-.314.037-.461.066t-.543.127l-.138.031q-.4.1-.642.145a4.714,4.714,0,0,1-.61.064,1.822,1.822,0,0,1-.607-.055,1.722,1.722,0,0,1-.5-.26,1.512,1.512,0,0,1-.435-.494,1.618,1.618,0,0,1-.054-1.558,2.788,2.788,0,0,1,1.2-1.268,3.607,3.607,0,0,1,1.175-.414,2.938,2.938,0,0,1,1.111,0l-.161.791a2.34,2.34,0,0,0-2.51.973.879.879,0,0,0-.035.946.9.9,0,0,0,.775.5,4.741,4.741,0,0,0,1.34-.2q.461-.12.678-.165t.63-.083a1.8,1.8,0,0,1,.657.034,1.911,1.911,0,0,1,.523.265,1.569,1.569,0,0,1,.473.535,1.736,1.736,0,0,1,.071,1.6A2.864,2.864,0,0,1,447.179,306.656Z" transform="translate(-442.376 -290.016)" fill="#fff"/>
        <path id="Path_4" data-name="Path 4" d="M478.495,317.745a.655.655,0,1,1-.006-.507A.64.64,0,0,1,478.495,317.745Z" transform="translate(-469.776 -303.238)" fill="#fff"/>
        <path id="Path_5" data-name="Path 5" d="M480.818,280.72l.9-.3-.453,7.292-.824.273-4.708-5.581.914-.3,3.885,4.739Z" transform="translate(-468.612 -274.596)" fill="#fff"/>
        <path id="Path_6" data-name="Path 6" d="M516.36,305.186a.655.655,0,1,1,.078-.5A.638.638,0,0,1,516.36,305.186Z" transform="translate(-499.595 -293.282)" fill="#fff"/>
        <path id="Path_7" data-name="Path 7" d="M542.812,260.436l2.957,4.138-2.276.26-2.7-4.031-1,.114.489,4.284-2.034.232-1.154-10.1,4.176-.477a2.894,2.894,0,0,1,2.222.633,2.944,2.944,0,0,1,1.114,2.042,2.635,2.635,0,0,1-.391,1.771A2.833,2.833,0,0,1,542.812,260.436Zm-1.134-1.33a1.184,1.184,0,0,0,.835-.457,1.286,1.286,0,0,0-.208-1.764,1.192,1.192,0,0,0-.91-.257l-2.061.236.283,2.478Z" transform="translate(-516.874 -254.47)" fill="#fff"/>
        <path id="Path_8" data-name="Path 8" d="M580.5,255.364a1.078,1.078,0,0,1-.787-.306,1.1,1.1,0,0,1-.038-1.572,1.078,1.078,0,0,1,.771-.344,1.1,1.1,0,0,1,.8.306,1.1,1.1,0,0,1,.038,1.572A1.094,1.094,0,0,1,580.5,255.364Zm-.8,7.967-.165-6.777,1.979-.048.164,6.777Z" transform="translate(-550.11 -253.141)" fill="#fff"/>
        <path id="Path_9" data-name="Path 9" d="M591.9,266.916a1.8,1.8,0,0,1-.995-.253l.06-1.653a1.188,1.188,0,0,0,.749.285.773.773,0,0,0,.606-.249,1,1,0,0,0,.269-.682l.279-7.723,1.978.071-.284,7.858a2.3,2.3,0,0,1-.808,1.707A2.565,2.565,0,0,1,591.9,266.916Zm2-11.405a1.093,1.093,0,0,1-.781-.354,1.1,1.1,0,0,1,.057-1.572,1.093,1.093,0,0,1,.8-.3,1.077,1.077,0,0,1,.767.353,1.1,1.1,0,0,1-.057,1.571A1.078,1.078,0,0,1,593.9,255.511Z" transform="translate(-559.192 -253.257)" fill="#fff"/>
        <path id="Path_10" data-name="Path 10" d="M616.211,277.469a5.27,5.27,0,0,1-3.125-1.2l1.019-1.29a3,3,0,0,0,.862.582,3.962,3.962,0,0,0,1.065.359,1.765,1.765,0,0,0,.807-.018.444.444,0,0,0,.357-.383.539.539,0,0,0-.282-.523,5.943,5.943,0,0,0-1.021-.5l-.625-.268a3.993,3.993,0,0,1-.565-.316,2.348,2.348,0,0,1-.505-.419,1.668,1.668,0,0,1-.289-.517,1.463,1.463,0,0,1-.074-.677,1.9,1.9,0,0,1,.952-1.482,3.264,3.264,0,0,1,2.109-.369,4.991,4.991,0,0,1,2.679,1.039l-1.059,1.163a3.086,3.086,0,0,0-1.485-.741,1.789,1.789,0,0,0-.809-.023q-.357.082-.389.365a.446.446,0,0,0,0,.144.317.317,0,0,0,.067.13c.036.045.07.085.1.121a.84.84,0,0,0,.143.119q.095.065.172.108t.206.105c.086.042.16.075.221.1s.143.062.247.11.186.085.247.11q.441.2.743.37a3.865,3.865,0,0,1,.618.445,1.6,1.6,0,0,1,.458.652,1.811,1.811,0,0,1,.088.849,1.918,1.918,0,0,1-.906,1.494A3.09,3.09,0,0,1,616.211,277.469Z" transform="translate(-576.637 -266.731)" fill="#fff"/>
        <path id="Path_11" data-name="Path 11" d="M646.326,282.45a5.271,5.271,0,0,1-3-1.49l1.137-1.188a3,3,0,0,0,.8.661,3.979,3.979,0,0,0,1.026.458,1.768,1.768,0,0,0,.805.059.444.444,0,0,0,.392-.347.539.539,0,0,0-.231-.547,5.962,5.962,0,0,0-.97-.592l-.6-.326a3.984,3.984,0,0,1-.532-.368,2.349,2.349,0,0,1-.464-.465,1.668,1.668,0,0,1-.239-.542,1.462,1.462,0,0,1-.009-.681,1.9,1.9,0,0,1,1.088-1.385,3.265,3.265,0,0,1,2.134-.167,4.991,4.991,0,0,1,2.569,1.289l-1.164,1.057a3.085,3.085,0,0,0-1.409-.878,1.784,1.784,0,0,0-.8-.1q-.363.048-.422.327a.454.454,0,0,0-.009.143.321.321,0,0,0,.055.136q.047.072.091.13a.823.823,0,0,0,.132.132q.088.074.161.124c.048.034.114.075.2.124s.152.09.21.12.137.075.235.133.177.1.235.133q.42.241.7.439a3.848,3.848,0,0,1,.573.5,1.592,1.592,0,0,1,.395.693,1.812,1.812,0,0,1,.008.853,1.919,1.919,0,0,1-1.043,1.4A3.091,3.091,0,0,1,646.326,282.45Z" transform="translate(-600.422 -270.671)" fill="#fff"/>
        <path id="Path_12" data-name="Path 12" d="M682.854,288.8a4.328,4.328,0,0,1-.226.539l-4.351-1.48a1.4,1.4,0,0,0,.949,1.841,1.677,1.677,0,0,0,.883.078,2.366,2.366,0,0,0,.907-.457l1.1,1.1a2.888,2.888,0,0,1-1.508.854,3.826,3.826,0,0,1-3.984-1.886,4.03,4.03,0,0,1,1.668-4.817,3.249,3.249,0,0,1,2.7-.135,2.952,2.952,0,0,1,1.887,1.652A3.712,3.712,0,0,1,682.854,288.8Zm-2.391-2.9a1.35,1.35,0,0,0-1.719.718l2.58.878A1.274,1.274,0,0,0,680.462,285.9Z" transform="translate(-626.393 -277.582)" fill="#fff"/>
        <path id="Path_13" data-name="Path 13" d="M712.057,296.124a2.631,2.631,0,0,1,1.344,1.554,2.557,2.557,0,0,1-.276,2.028l-2.057,3.758-1.737-.95,1.94-3.544a1.072,1.072,0,0,0,.091-.9,1.3,1.3,0,0,0-.644-.715,1.4,1.4,0,0,0-1.038-.151,1.166,1.166,0,0,0-.78.593l-1.887,3.449-1.736-.95,3.254-5.947,1.558.853-.282.742A2.682,2.682,0,0,1,712.057,296.124Z" transform="translate(-649.144 -285.551)" fill="#fff"/>
      </g>
      <g id="Group_4" data-name="Group 4" transform="translate(35.334 84.004)">
        <path id="Path_14" data-name="Path 14" d="M536.8,630.1v-.33h2.408v.33Z" transform="translate(-536.805 -626.49)" fill="#fff"/>
        <path id="Path_15" data-name="Path 15" d="M552.369,619.636v-.289q1.906-1.92,2.154-2.188a2.869,2.869,0,0,0,.674-.97,1.221,1.221,0,0,0,.035-.3,1.025,1.025,0,0,0-.306-.788,1.116,1.116,0,0,0-.774-.292,1.06,1.06,0,0,0-1.128,1.08l-.433-.007a1.419,1.419,0,0,1,.458-1.077,1.561,1.561,0,0,1,1.118-.41,1.581,1.581,0,0,1,1.049.389,1.372,1.372,0,0,1,.451,1.015,1.3,1.3,0,0,1-.024.32q-.031.148-.069.279a1.113,1.113,0,0,1-.179.323q-.141.193-.248.334a5.535,5.535,0,0,1-.389.433q-.282.293-.485.5t-.65.654l-.585.585h2.821v.406Z" transform="translate(-549.046 -614.4)" fill="#fff"/>
        <path id="Path_16" data-name="Path 16" d="M574.541,619.731a1.553,1.553,0,0,1-1.311-.76,3.652,3.652,0,0,1,0-3.777,1.505,1.505,0,0,1,2.618,0,3.618,3.618,0,0,1,0,3.771A1.555,1.555,0,0,1,574.541,619.731Zm.007-.406a1.148,1.148,0,0,0,.977-.65,3.387,3.387,0,0,0,0-3.189,1.069,1.069,0,0,0-1.965,0,3.359,3.359,0,0,0,0,3.189A1.159,1.159,0,0,0,574.548,619.325Z" transform="translate(-565.039 -614.426)" fill="#fff"/>
        <path id="Path_17" data-name="Path 17" d="M594.477,619.915v-4.6l-1.052.826v-.557l1.08-.826h.42v5.16Z" transform="translate(-581.336 -614.679)" fill="#fff"/>
        <path id="Path_18" data-name="Path 18" d="M610.086,616.13a1.722,1.722,0,0,1-.454,1.266l-1.851,2.3h-.55l1.521-1.83a.868.868,0,0,1-.454.089,1.679,1.679,0,0,1-1.218-.464,1.722,1.722,0,0,1-.1-2.432,1.809,1.809,0,0,1,2.515-.137A1.673,1.673,0,0,1,610.086,616.13Zm-1.693,1.438a1.269,1.269,0,0,0,.919-.454,1.357,1.357,0,0,0-.127-1.9,1.284,1.284,0,0,0-.97-.334,1.3,1.3,0,0,0-.926.458,1.375,1.375,0,0,0,.127,1.9A1.3,1.3,0,0,0,608.393,617.568Z" transform="translate(-591.639 -614.464)" fill="#fff"/>
        <path id="Path_19" data-name="Path 19" d="M628.292,630.1v-.33H630.7v.33Z" transform="translate(-608.758 -626.49)" fill="#fff"/>
      </g>
    </g>
    <g id="Group_6" data-name="Group 6">
      <path id="Path_20" data-name="Path 20" d="M415.256,318.3l-.175-.05c-47.223-13.442-44.151-29.459-43-35.488.976-5.09,1.781-9.4,2.518-14.7.55-3.955,1.039-8.27,1.538-13.578.994-10.57-4.913-19.275-7.5-22.527a1.489,1.489,0,0,1-.308-1.178,1.426,1.426,0,0,1,.636-.976c17.455-11.272,41.155-11.843,45.729-11.843.331,0,.515,0,.536,0h.035a101.688,101.688,0,0,1,16.064,1.286c8.32,1.289,20.315,4.167,30.2,10.553a1.425,1.425,0,0,1,.636.976,1.489,1.489,0,0,1-.307,1.177c-2.586,3.251-8.492,11.955-7.5,22.527.5,5.309.988,9.623,1.538,13.577.737,5.3,1.542,9.611,2.518,14.7,1.156,6.029,4.228,22.046-43,35.488Zm-.556-99.057c-4.511,0-27.881.561-45.033,11.638a.146.146,0,0,0-.067.107.211.211,0,0,0,.046.173c2.682,3.373,8.808,12.41,7.771,23.444-.5,5.328-.992,9.66-1.545,13.634-.741,5.325-1.549,9.656-2.529,14.764-1.094,5.707-4,20.855,41.912,33.965,45.911-13.11,43.007-28.258,41.913-33.965-.979-5.106-1.788-9.436-2.529-14.764-.553-3.973-1.044-8.305-1.545-13.634-1.037-11.035,5.089-20.071,7.771-23.444a.211.211,0,0,0,.046-.173h0a.147.147,0,0,0-.067-.107c-18.877-12.19-45.276-11.642-45.539-11.635h-.1C415.191,219.25,415.015,219.247,414.7,219.247Z" transform="translate(-368.316 -217.965)" fill="#f1cd4c"/>
    </g>
    <path id="Path_21" data-name="Path 21" d="M493.851,340.12l.186.661.185-.516.072,0,.547,2.638.1.019.681-1.352.1.02.079.5.345-.424v3.067c.283-.336.3-.805.7-1.086l.1.4.33-.284a10.785,10.785,0,0,0,.7,3.388l.309-1.684.078-.012.232.588.164-.392c.037.03.09.05.1.083.128.422.236.85.376,1.268a6.765,6.765,0,0,0,.6,1.347,5.051,5.051,0,0,1,.008-.731,5.33,5.33,0,0,1,.221-.736c.095.095.15.142.195.2a2.206,2.206,0,0,1,.128.2l.177-.308,1.121,2.3.091-.018.189-.811.3.509.227-.371c.125.377.238.675.322.981a3.663,3.663,0,0,0,1.3,2.017c.037.028.08.048.161.1.038-.413.08-.794.107-1.176.118-1.677.231-3.354.348-5.031.025-.355.043-.712.09-1.065a.849.849,0,0,0-.279-.77,6.433,6.433,0,0,0-3.622-1.824c-.249-.041-.5-.073-.818-.119.459-.377,1-.349,1.52-.552a9.453,9.453,0,0,0-2.779-.595c.326-.4.811-.224,1.193-.439a14.577,14.577,0,0,0-2.776-1.146l.01-.116c.187-.041.372-.092.561-.119s.361-.022.672-.039a10.849,10.849,0,0,1-2.846-1.931l1.03-.052a5.961,5.961,0,0,1-1.806-2.239l1.253.475a4.543,4.543,0,0,1,.325-1.828l.183.744.226-.671.509,2.167.6-1.115.107.616.35-.429c.016.745.03,1.394.043,2.042l.083.018.4-.553.156.548.173-.412a15.5,15.5,0,0,0,.691,2.486l.208-1.072c.258.1.174.365.329.523l.2-.43.669,1.965.3-1,.293.353.239-.156.867,1.666.229-.542.261.472.2-.31c.358.6.385,1.338.972,1.893.034-.2.063-.337.078-.473.067-.59.122-1.182.2-1.771a.965.965,0,0,0-.213-.753c-.268-.35-.51-.72-.749-1.092a6.24,6.24,0,0,1-.3-.6h.821a12.469,12.469,0,0,1-.374-2.279c.28.227.493.261.715.078a6.487,6.487,0,0,1-.2-1.616c.221-.165.312.5.536,0l.34.391c.243-.538.209-1.134.588-1.636l.224.4.244-.339c.26.682.046,1.346.246,2.005a2.4,2.4,0,0,1,.572-.386,1.8,1.8,0,0,1,.64.068,9.844,9.844,0,0,1-.741,2.02l.967.086c.177.377-.108.609-.261.867s-.359.524-.53.769l1.034.058a6.3,6.3,0,0,1-.414.486c-.4.372-.8.741-1.208,1.094a.775.775,0,0,0-.288.562c-.059.641-.144,1.279-.225,1.978.458-.143.626-.495.833-.8a6.741,6.741,0,0,1,.667-1.024l.089.5.326-.356.082.448a10.812,10.812,0,0,0,1.214-1.545,1.125,1.125,0,0,1,.126.147,1.551,1.551,0,0,1,.082.194l.328-.24v.881l.108.033,1.116-1.966.059.625.347-.363v1.067a8.35,8.35,0,0,0,1.074-2.454l.278.44.222-.336.275.74.446-2.363.313.609.21-.444.331,1.033c.4-.64.573-1.325.977-1.931l.055.657.281-.492.08,0c.007.272.03.546.016.817s-.064.535-.1.844c.437-.019.8-.481,1.264-.116a6.4,6.4,0,0,1-2.251,1.734l.964.207.006.119a10.962,10.962,0,0,1-3.053,1.248l1.163.366,0,.117a14.671,14.671,0,0,0-2.97.678l1.109.443a3.094,3.094,0,0,1-1.437.112,7.95,7.95,0,0,0-1.41.163l1.388.64c-.2.236-.4.159-.568.149a6,6,0,0,0-2.556.33c-.127.049-.253.1-.378.152-1.151.493-1.146.494-1.152,1.748-.007,1.325-.016,2.65-.04,3.974-.017.933-.063,1.865-.1,2.8,0,.1,0,.2,0,.349a3.369,3.369,0,0,0,1.529-1.192c.217-.345.42-.7.635-1.045.086-.138.187-.268.331-.473l.1.472.09.072.182-.351.075.049v.682a13.1,13.1,0,0,0,1.6-2.014l.218.349.272-.255a2.266,2.266,0,0,1,0,1.318,13.416,13.416,0,0,0,1.581-2.482c.018.28.029.451.043.678l.337-.435a12.763,12.763,0,0,1,.009,1.657,13.545,13.545,0,0,0,1.389-3.255l.3.438.132-.251c.193.04.244.227.318,1.114.435-1.036.422-2.073.792-3.1l.248.568.2-.354c.286.429.221.923.424,1.448l1.186-2.619.078.021v.63l.069.022.308-.569a2.863,2.863,0,0,1,0,1.18c-.027.382-.117.759-.19,1.2a6.35,6.35,0,0,0,.656-.267.807.807,0,0,1,.878.013,7.616,7.616,0,0,1-2.743,2.1l1.265.3a4.1,4.1,0,0,1-.375.3,11.058,11.058,0,0,1-2.889,1.11c-.156.04-.311.085-.529.145.5.237,1.025.235,1.5.645a19.7,19.7,0,0,0-3.644.7l1.362.648-.026.134a4.312,4.312,0,0,1-.613.016,7.938,7.938,0,0,0-2.839.016c.349.16.631.272.9.416.279.153.542.338.856.538a.839.839,0,0,1-.718.1,6.531,6.531,0,0,0-4.978,1.329,1.043,1.043,0,0,0-.462.9c-.081,2.221-.188,4.442-.287,6.663-.014.315-.029.63-.045.954,1.38-.314,2.019-1.416,2.8-2.476l.077.594.28-.462c.056.124.092.165.087.2a2.412,2.412,0,0,0-.047.688l1.832-1.911.091.341.331-.219a2.228,2.228,0,0,1-.251,1.436,10.8,10.8,0,0,0,1.9-2.4v.585l.432-.389-.231,1.574a9.987,9.987,0,0,0,1.742-2.973l.2.43.226-.254c.156,0,.211.467.137,1.145.232-.242.236-.244.437-.9.105-.341.2-.684.3-1.026a4.439,4.439,0,0,1,.4-1.017l.171.534c.047-.077.085-.131.115-.189s.05-.121.133-.331c.035.133.053.179.06.227.059.434.116.869.18,1.348a4.291,4.291,0,0,0,.757-1.188,9.812,9.812,0,0,1,.756-1.207l.038.6.3-.455a4.727,4.727,0,0,1-.437,2.286c.286.09.5-.084.73-.14.3-.071.586-.27.891.022a7.656,7.656,0,0,1-3,1.847l1.178.384c-.047.242-.242.259-.384.323a10.887,10.887,0,0,1-2.839.777c-.165.025-.33.055-.621.1l1.4.66c-.125.234-.3.159-.429.17-.879.069-1.758.127-2.637.2a4.909,4.909,0,0,0-.585.131l1.365.786a.9.9,0,0,1-.808.068,8.48,8.48,0,0,0-2.748-.262c.355.207.626.348.878.517s.513.379.787.584a.756.756,0,0,1-.741.064,6.441,6.441,0,0,0-4.9.76.712.712,0,0,0-.418.683c0,.17-.015.339-.013.509q.04,2.877.086,5.755c0,.18.038.36.057.527.647-.366,1.28-.689,1.875-1.073a3.977,3.977,0,0,0,.856-.786c.317-.375.577-.8.866-1.2.107-.148.225-.288.383-.489l.1.451.317-.3.092.043-.284,1.22a22.275,22.275,0,0,0,2.479-2.63l.112.4.326-.233a2.62,2.62,0,0,1-.646,2.2,1.891,1.891,0,0,0,.781-.6c.454-.592.885-1.2,1.314-1.812a6.7,6.7,0,0,1,.7-.931l-.082.646.38-.448.078.01-.315,2.2c1.141-1.088,1.562-2.572,2.247-3.99l.21.488.254-.309a4.231,4.231,0,0,1,.135,1.8,6.645,6.645,0,0,0,.775-1.931,17.679,17.679,0,0,1,.684-2l.178.579.238-.479a8.238,8.238,0,0,1,.278,2.062c.8-.981,1.272-2.159,1.972-3.212v.633l.411-.525a9.663,9.663,0,0,1-.679,3.078,3.126,3.126,0,0,0,.352-.058c.228-.067.451-.149.678-.219.342-.1.67-.344,1.055-.033a9.122,9.122,0,0,1-3.742,2.349c.524.258,1.091.222,1.554.612a14.751,14.751,0,0,1-4.679,1.409,5.5,5.5,0,0,1,1.631.988c-.736.024-1.473.02-2.206.081s-1.44.186-2.16.282l-.023.108,1.652.991a.983.983,0,0,1-.831.084,11.207,11.207,0,0,0-2.916-.416c-.185,0-.37,0-.554,0l-.037.1c.22.122.444.237.658.367.246.15.492.3.723.475.215.16.409.346.714.608a3.329,3.329,0,0,1-.726-.007,7.821,7.821,0,0,0-6.692,1.2.648.648,0,0,0-.32.714,30.9,30.9,0,0,0,.98,5.145c.057.193.125.382.2.615a6.694,6.694,0,0,1,.68-.6,11.519,11.519,0,0,1,1.31-.779,3.874,3.874,0,0,0,1.47-1.226c.328-.454.648-.914.976-1.369.107-.148.226-.286.384-.485l.081.456.309-.264c.026.055.068.1.06.136-.1.458-.2.914-.316,1.4a21.466,21.466,0,0,0,2.863-3.055l.156.388.3-.245a3.129,3.129,0,0,1-.776,2.6,2.748,2.748,0,0,0,1.064-.841c.546-.735,1.058-1.495,1.579-2.248a4.437,4.437,0,0,1,.588-.762c-.01.177-.021.354-.036.622l.33-.408.093.022-.364,2.553a2.124,2.124,0,0,0,.835-.893c.461-.907.9-1.826,1.337-2.744.13-.272.238-.555.392-.915l.248.466.239-.313a4.6,4.6,0,0,1,.084,2.33c.927-1.436,1.075-3.153,1.737-4.784l.208.644.21-.384c.035.039.084.067.088.1.068.555.136,1.109.19,1.665a3.694,3.694,0,0,0,.057.606,26.2,26.2,0,0,0,2.264-3.891v.824l.337-.465a8.92,8.92,0,0,1-.68,3.428c.827-.065,1.509-.657,2.447-.483a10.274,10.274,0,0,1-4.317,2.763l1.724.555,0,.14a15.515,15.515,0,0,1-5.368,1.555,8.166,8.166,0,0,1,2.091,1.1,7.506,7.506,0,0,1-.8.072,17.4,17.4,0,0,0-3.95.341,1.966,1.966,0,0,0-.244.065c-.026.009-.043.046-.079.088a5.847,5.847,0,0,1,1.831,1.282,7.129,7.129,0,0,1-.876-.1,10.778,10.778,0,0,0-3.97-.335c.266.142.539.274.8.429a8.217,8.217,0,0,1,.761.509c.253.193.485.412.727.62l-.036.1a2.435,2.435,0,0,1-.557-.006,10.49,10.49,0,0,0-2.618-.345A8.9,8.9,0,0,0,508,380.941a1.109,1.109,0,0,0-.134.146,8.982,8.982,0,0,0,7.727,5.564c-.475.094-.949.192-1.425.28-1.035.191-2.072.37-3.105.569a2.148,2.148,0,0,1-1.468-.215,9.139,9.139,0,0,1-3.718-3.532,13.077,13.077,0,0,1-.821-1.637,1.479,1.479,0,0,0-.68-.778,8.659,8.659,0,0,0-7.121-.8,14.328,14.328,0,0,1-1.543.4,3.844,3.844,0,0,1,.891-1.079c.354-.31.739-.584,1.106-.951-.168.018-.336.034-.5.054a3.52,3.52,0,0,0-.5.069c-.818.221-1.633.455-2.45.68a8.621,8.621,0,0,1-1.207.258c.355-.717,1.09-.991,1.687-1.519a3.213,3.213,0,0,0-.382-.067,18.165,18.165,0,0,0-3.911.169,7.067,7.067,0,0,1-.821.044,2.018,2.018,0,0,1,.823-.765c.3-.186.614-.352.947-.542-.145-.177-.324-.11-.473-.114a15.746,15.746,0,0,1-3.926-.532c-.324-.093-.64-.217-1.028-.35a5.114,5.114,0,0,1,1.649-.874,8.879,8.879,0,0,1-2.464-.873,14.334,14.334,0,0,1-2.1-1.387l.043-.1,2.59.471a10.046,10.046,0,0,1-1.267-3.756l.479.631v-.494a28.746,28.746,0,0,0,2.631,3.467,8.93,8.93,0,0,1,.046-2.7l.293.506.119-.461c.841,1.532,1.2,3.218,2.32,4.53a4.833,4.833,0,0,1-.26-2.675l.345.443.151-.282c.945,1.456,1.618,3.078,2.991,4.175l.1-.05-.759-2.778.071-.051.414.392.109-.253c.129.147.247.279.363.413.554.643,1.089,1.3,1.666,1.925a4.268,4.268,0,0,0,1.666,1.113c-.347-.442-.706-.833-.985-1.274a2.222,2.222,0,0,1-.31-1.483c.222-.09.312.422.53.022a19.88,19.88,0,0,0,3.254,2.658,3.469,3.469,0,0,1-.6-1.8l.395.316.16-.187c.466.51.9,1.034,1.388,1.5a5.108,5.108,0,0,0,1.167.883c.6.308,1.25.513,1.931.783-.062-.336-.123-.645-.177-.956a33.733,33.733,0,0,1-.5-5.319.936.936,0,0,0-.52-.888,8.176,8.176,0,0,0-4.45-1.252,9.229,9.229,0,0,0-1.212.133c-.462.07-.921.166-1.4.211a5.786,5.786,0,0,1,2.088-1.52c-1.549-.274-2.888.286-4.317.414.112-.4.453-.5.717-.669s.56-.308.943-.514a16.716,16.716,0,0,0-4.553-.4,1.726,1.726,0,0,1,.821-.615c.271-.13.551-.241.829-.4a14.278,14.278,0,0,1-4.613-1.455,5.68,5.68,0,0,1,1.5-.577,9.818,9.818,0,0,1-3.754-2.465l.05-.114,2.194.628a8.613,8.613,0,0,1-.662-3.292l.407.647.059-.5,1.751,3.155.1-.03.229-2.167.1-.013.275.53.182-.443c.547,1.379.693,2.8,1.43,4.011a4.876,4.876,0,0,1,.112-2.15l.293.466.178-.3c.076.134.144.236.195.346.322.711.623,1.432.966,2.133a4.327,4.327,0,0,0,1.075,1.484l-.371-2.544.061-.027.466.606v-.508c.858,1.224,1.438,2.547,2.743,3.4-.24-.436-.463-.781-.625-1.153a2.435,2.435,0,0,1-.095-1.315l.368.28.194-.148a19.788,19.788,0,0,0,2.377,2.492c-.079-.513-.349-.907-.182-1.418l.325.347.155-.2a.509.509,0,0,1,.115.088c.318.44.632.884.949,1.325a3.468,3.468,0,0,0,1.389,1.164c.338.155.658.349,1.023.545a1.5,1.5,0,0,0,.066-.279c.074-2,.134-4.006.223-6.008a1.018,1.018,0,0,0-.317-.811,7.1,7.1,0,0,0-5.013-2.278c-.237-.01-.475-.017-.712-.027-.013,0-.026-.015-.086-.054a5.216,5.216,0,0,1,1.932-.768,9.958,9.958,0,0,0-3.6-.467,1.155,1.155,0,0,1,.748-.4c.241-.073.487-.127.844-.219a15.167,15.167,0,0,0-3.612-1.172c.473-.4,1.014-.3,1.547-.483a12.954,12.954,0,0,1-3.5-1.935l.027-.138,1.19-.114a8.319,8.319,0,0,1-2.527-2.57l.068-.094,1.571.63a6.9,6.9,0,0,1,.21-2.409l.226.676.059,0,.066-.5.089-.017.767,2.547h.088l.616-1.512.173.644.281-.394c.228,1.017.078,2.008.345,3.029a3.022,3.022,0,0,1,.5-1.248l.172.439.23-.261c.041.03.082.045.087.067.142.663.275,1.328.419,1.991a3.349,3.349,0,0,0,.529,1.284l.158-1.827.093-.009.293.676.068-.5a15.584,15.584,0,0,0,1.355,2.705,6.749,6.749,0,0,1-.078-.837,6.546,6.546,0,0,1,.142-.831l.323.425.223-.248a14.985,14.985,0,0,0,1.334,2.219l.095-.854.1-.005.275.506c.031-.105.045-.151.057-.2a.536.536,0,0,1,.092-.212c.5,1.113.9,2.3,2.157,2.9.028-.315.064-.64.083-.966.106-1.865.2-3.73.32-5.594a1.259,1.259,0,0,0-.3-.931,7.245,7.245,0,0,0-4.75-2.705c-.3-.046-.6-.079-.9-.12-.009,0-.016-.023-.044-.067a5.012,5.012,0,0,1,1.97-.6,10.046,10.046,0,0,0-3.486-.778c.157-.318.456-.289.694-.354.256-.069.522-.1.886-.16a16.572,16.572,0,0,0-3.515-1.472c.492-.382,1.01-.237,1.546-.392a12.594,12.594,0,0,1-3.309-2.24c.368-.283.76-.073,1.184-.2a8.348,8.348,0,0,1-2.248-2.761,2.783,2.783,0,0,1,1.618.768c.026-.491.027-.888.073-1.28s.139-.8.212-1.192Z" transform="translate(-458.554 -307.768)" fill="#f1cd4c"/>
  </g>
</svg>
