<svg id="transparency" xmlns="http://www.w3.org/2000/svg" width="27.345" height="27.347" viewBox="0 0 27.345 27.347">
  <path id="Path_22" data-name="Path 22" d="M115.44,27.692a6.037,6.037,0,0,1,4.863,2.429.493.493,0,0,0,.788-.591,7.039,7.039,0,1,0,1.042,1.97.493.493,0,0,0-.933.315,6.084,6.084,0,1,1-5.76-4.123Zm0,0" transform="translate(-97.775 -24.093)" fill="#003473"/>
  <path id="Path_23" data-name="Path 23" d="M17.951,0A9.684,9.684,0,0,0,9.518,14.438a.493.493,0,1,0,.858-.485A8.7,8.7,0,1,1,11.8,15.832a.492.492,0,0,0-.7,0L9.779,17.16a1.958,1.958,0,0,0-2.388.29L.859,23.98a1.961,1.961,0,0,0,0,2.77l.023.024a1.961,1.961,0,0,0,2.771,0l6.532-6.531a1.952,1.952,0,0,0,.286-2.383l.993-.993A9.681,9.681,0,1,0,17.951,0ZM9.488,19.548,2.957,26.077a.976.976,0,0,1-1.377,0l-.023-.023a.974.974,0,0,1,0-1.377l6.531-6.531a.967.967,0,0,1,.689-.285.989.989,0,0,1,.712.309.974.974,0,0,1,0,1.377Zm0,0" transform="translate(-0.286)" fill="#003473"/>
</svg>
