<svg xmlns="http://www.w3.org/2000/svg" width="22.799" height="18.823" viewBox="0 0 22.799 18.823">
  <path id="twitter_6_" data-name="twitter (6)" d="M8.675,18.822C4.87,18.822,1.863,18.157.424,17L.4,16.976.37,16.951A1.17,1.17,0,0,1,.063,15.72l.013-.037a1.192,1.192,0,0,1,1.087-.748,9.825,9.825,0,0,0,2.6-.358,4.931,4.931,0,0,1-2.6-3,1.064,1.064,0,0,1,.371-1.241,1.086,1.086,0,0,1,.324-.166A7.19,7.19,0,0,1,.385,7.526L.376,7.5.37,7.466A1.108,1.108,0,0,1,.883,6.277a1.1,1.1,0,0,1,.525-.148,5.559,5.559,0,0,1-.42-1.281,5.361,5.361,0,0,1,.571-3.572L1.7.992A.788.788,0,0,1,2.963.787l.258.258a12.156,12.156,0,0,0,7.01,3.839,5.584,5.584,0,0,1,1.508-3.219A5.289,5.289,0,0,1,15.514,0h.009a7.564,7.564,0,0,1,3.122,1.016C19.317.8,20.126.456,20.966.1a1.06,1.06,0,0,1,1.186.209,1.042,1.042,0,0,1,.226,1.145q-.092.255-.207.5a1.062,1.062,0,0,1,.309.213,1.147,1.147,0,0,1,.285,1.072l-.01.036A4.374,4.374,0,0,1,21,5.683C20.861,12.954,15.386,18.822,8.675,18.822ZM1.706,16.254c1.356.767,3.94,1.231,6.969,1.231a10.439,10.439,0,0,0,7.739-3.521A12.615,12.615,0,0,0,19.663,5.4V5.368a.788.788,0,0,1,.42-.7,2.839,2.839,0,0,0,1.229-1.359.788.788,0,0,1-.76-1.242,4.34,4.34,0,0,0,.3-.472c-.725.3-1.414.578-2.012.759a.855.855,0,0,1-.658-.071,6.514,6.514,0,0,0-2.653-.949,4.157,4.157,0,0,0-4,4.213.789.789,0,0,1-.941.774,13.822,13.822,0,0,1-8.027-4.04A3.947,3.947,0,0,0,2.3,4.592,4.878,4.878,0,0,0,3.459,6.837a.788.788,0,0,1-.8,1.282,3.611,3.611,0,0,1-.735-.282,6.661,6.661,0,0,0,2.283,2.649.788.788,0,0,1-.5,1.436A3.545,3.545,0,0,1,2.661,11.7,3.6,3.6,0,0,0,5.53,13.728.789.789,0,0,1,5.764,15.2,9.474,9.474,0,0,1,1.706,16.254Zm0,0" transform="translate(0 0.001)" fill="#fff"/>
</svg>
