<svg xmlns="http://www.w3.org/2000/svg" width="12.94" height="22.799" viewBox="0 0 12.94 22.799">
  <path id="facebook_5_" data-name="facebook (5)" d="M8.493,22.8H4.842a1.107,1.107,0,0,1-1.106-1.106V13.458H1.606A1.107,1.107,0,0,1,.5,12.352V8.823A1.107,1.107,0,0,1,1.606,7.717h2.13V5.95A6.017,6.017,0,0,1,5.327,1.64,5.73,5.73,0,0,1,9.552,0l2.784,0a1.108,1.108,0,0,1,1.1,1.106V4.387a1.107,1.107,0,0,1-1.106,1.106H10.46c-.572,0-.717.115-.748.15-.051.058-.112.223-.112.678v1.4h2.595a1.124,1.124,0,0,1,.547.139,1.11,1.11,0,0,1,.569.967v3.529A1.107,1.107,0,0,1,12.2,13.458H9.6v8.235A1.107,1.107,0,0,1,8.493,22.8Zm-3.42-1.337h3.19v-8.6A.739.739,0,0,1,9,12.121h2.971V9.054H9a.739.739,0,0,1-.738-.738V6.321a2.276,2.276,0,0,1,.447-1.562,2.265,2.265,0,0,1,1.75-.6H12.1V1.341l-2.553,0C6.789,1.337,5.073,3.1,5.073,5.95V8.315a.739.739,0,0,1-.738.738h-2.5v3.067h2.5a.739.739,0,0,1,.738.738ZM12.334,1.341h0Zm0,0" transform="translate(-0.5)" fill="#fff"/>
</svg>
