<svg xmlns="http://www.w3.org/2000/svg" width="22.799" height="22.799" viewBox="0 0 22.799 22.799">
  <g id="Iconen" transform="translate(-1008.358 -11)">
    <g id="instagram_3_" data-name="instagram (3)" transform="translate(1008.358 11)">
      <path id="Path_27" data-name="Path 27" d="M16.627,0H6.171A6.178,6.178,0,0,0,0,6.171V16.628A6.178,6.178,0,0,0,6.171,22.8H16.628A6.178,6.178,0,0,0,22.8,16.628V6.171A6.178,6.178,0,0,0,16.627,0Zm4.835,16.628a4.84,4.84,0,0,1-4.835,4.835H6.171a4.84,4.84,0,0,1-4.835-4.835V6.171A4.84,4.84,0,0,1,6.171,1.337H16.628a4.84,4.84,0,0,1,4.835,4.835Zm0,0" fill="#fff"/>
      <path id="Path_28" data-name="Path 28" d="M122.238,116a6.234,6.234,0,1,0,6.234,6.234A6.241,6.241,0,0,0,122.238,116Zm0,11.131a4.9,4.9,0,1,1,4.9-4.9A4.9,4.9,0,0,1,122.238,127.135Zm0,0" transform="translate(-110.838 -110.838)" fill="#fff"/>
      <path id="Path_29" data-name="Path 29" d="M359.819,66.285a1.842,1.842,0,1,0,1.842,1.842A1.844,1.844,0,0,0,359.819,66.285Zm0,2.348a.505.505,0,1,1,.506-.505A.506.506,0,0,1,359.819,68.633Zm0,0" transform="translate(-342.036 -63.334)" fill="#fff"/>
    </g>
  </g>
</svg>
